<?xml version="1.0" encoding="UTF-8" standalone="no"?>
<?xml-stylesheet type="text/css" href="/assets/styles/hc-2018/all-stylesheets.css"?>
<!DOCTYPE svg PUBLIC "-//W3C//DTD SVG 1.1//EN" "http://www.w3.org/Graphics/SVG/1.1/DTD/svg11.dtd">
<svg xmlns="http://www.w3.org/2000/svg" xmlns:xl="http://www.w3.org/1999/xlink" version="1.1" viewBox="0 0 11 11" width="11pt" height="11pt" xmlns:dc="http://purl.org/dc/elements/1.1/">
  <metadata> Produced by OmniGraffle 7.9 
    <dc:date>2018-09-29 21:58:16 +0000</dc:date>
  </metadata>
  <symbol id="icon" viewBox="0 0 11 11">
    <g id="Canvas_1: Layer 1">
      <title>Layer 1</title>
      <g id="Graphic_7">
        <path d="M 7 11 L 7 8 L 8 8 L 8 6 L 9 6 L 9 2 L 8 2 L 8 1 L 7 1 L 7 8881784e-22 L 4 8881784e-22 L 4 1 L 3 1 L 3 2 L 2 2 L 2 6 L 3 6 L 3 8 L 4 8 L 4 11 Z M 5 8 L 5 7 L 4 7 L 4 5 L 3 5 L 3 3 L 4 3 L 4 2 L 5 2 L 5 1 L 6 1 L 6 2 L 7 2 L 7 3 L 8 3 L 8 5 L 7 5 L 7 7 L 6 7 L 6 8 Z"/>
      </g>
      <g id="Graphic_10">
        <path d="M 9 6 L 9 7 L 10 7 L 10 8 L 11 8 L 11 7 L 10 7 L 10 6 Z"/>
      </g>
      <g id="Graphic_11">
        <path d="M 0 7 L 0 8 L 1 8 L 1 7 L 2 7 L 2 6 L 1 6 L 1 7 Z"/>
      </g>
      <g id="Graphic_15">
        <path d="M 9 1 L 9 2 L 10 2 L 10 1 L 11 1 L 11 0 L 10 0 L 10 1 Z"/>
      </g>
      <g id="Graphic_17">
        <path d="M 0 0 L 0 1 L 1 1 L 1 2 L 2 2 L 2 1 L 1 1 L 1 0 Z"/>
      </g>
    </g>
  </symbol>
</svg>
